<svg width="13" height="14" viewBox="0 0 13 14" fill="none" xmlns="http://www.w3.org/2000/svg">
<path d="M12.5625 0.875H9.28125L9.00781 0.382812C8.89844 0.164062 8.67969 0 8.43359 0H5.28906C5.04297 0 4.82422 0.164062 4.71484 0.382812L4.46875 0.875H1.1875C0.941406 0.875 0.75 1.09375 0.75 1.3125V2.1875C0.75 2.43359 0.941406 2.625 1.1875 2.625H12.5625C12.7812 2.625 13 2.43359 13 2.1875V1.3125C13 1.09375 12.7812 0.875 12.5625 0.875ZM2.19922 12.7695C2.22656 13.4805 2.80078 14 3.51172 14H10.2109C10.9219 14 11.4961 13.4805 11.5234 12.7695L12.125 3.5H1.625L2.19922 12.7695Z" fill="#ADB5BD"/>
</svg>
